<mxfile host="app.diagrams.net" modified="2021-04-01T02:19:04.988Z" agent="5.0 (X11; Linux x86_64) AppleWebKit/537.36 (KHTML, like Gecko) Chrome/89.0.4389.90 Safari/537.36" etag="itoRoeTE7qY2l2Y7vdzB" version="14.5.4" type="github">
  <diagram id="kvTFi5JffaIsxTiJqmIz" name="第 1 页">
    <mxGraphModel dx="1385" dy="774" grid="0" gridSize="10" guides="1" tooltips="1" connect="1" arrows="1" fold="1" page="1" pageScale="1" pageWidth="827" pageHeight="1169" background="none" math="1" shadow="1">
      <root>
        <mxCell id="0" />
        <mxCell id="1" parent="0" />
        <mxCell id="sBbobzm5d6JnBrTkhbX6-26" value="" style="rounded=0;whiteSpace=wrap;html=1;" vertex="1" parent="1">
          <mxGeometry x="55" y="230" width="615" height="320" as="geometry" />
        </mxCell>
        <mxCell id="sBbobzm5d6JnBrTkhbX6-6" style="edgeStyle=orthogonalEdgeStyle;rounded=0;orthogonalLoop=1;jettySize=auto;html=1;exitX=0.5;exitY=1;exitDx=0;exitDy=0;" edge="1" parent="1" source="sBbobzm5d6JnBrTkhbX6-1" target="sBbobzm5d6JnBrTkhbX6-3">
          <mxGeometry relative="1" as="geometry">
            <mxPoint x="350" y="300" as="targetPoint" />
          </mxGeometry>
        </mxCell>
        <mxCell id="sBbobzm5d6JnBrTkhbX6-7" style="edgeStyle=orthogonalEdgeStyle;rounded=0;orthogonalLoop=1;jettySize=auto;html=1;exitX=0.5;exitY=1;exitDx=0;exitDy=0;" edge="1" parent="1" source="sBbobzm5d6JnBrTkhbX6-1" target="sBbobzm5d6JnBrTkhbX6-4">
          <mxGeometry relative="1" as="geometry" />
        </mxCell>
        <mxCell id="sBbobzm5d6JnBrTkhbX6-1" value="32KB&amp;nbsp; (2&lt;sup&gt;3 &lt;/sup&gt;* 4KB)&lt;span style=&quot;font-size: 8.33333px&quot;&gt;&lt;br&gt;&lt;/span&gt;" style="rounded=0;whiteSpace=wrap;html=1;fillColor=#ffe6cc;strokeColor=#d79b00;" vertex="1" parent="1">
          <mxGeometry x="210" y="250" width="290" height="40" as="geometry" />
        </mxCell>
        <mxCell id="sBbobzm5d6JnBrTkhbX6-12" style="edgeStyle=elbowEdgeStyle;rounded=0;orthogonalLoop=1;jettySize=auto;elbow=vertical;html=1;exitX=0.5;exitY=1;exitDx=0;exitDy=0;entryX=0.5;entryY=0;entryDx=0;entryDy=0;" edge="1" parent="1" source="sBbobzm5d6JnBrTkhbX6-3" target="sBbobzm5d6JnBrTkhbX6-10">
          <mxGeometry relative="1" as="geometry" />
        </mxCell>
        <mxCell id="sBbobzm5d6JnBrTkhbX6-13" style="edgeStyle=orthogonalEdgeStyle;rounded=0;orthogonalLoop=1;jettySize=auto;html=1;exitX=0.5;exitY=1;exitDx=0;exitDy=0;entryX=0.5;entryY=0;entryDx=0;entryDy=0;" edge="1" parent="1" source="sBbobzm5d6JnBrTkhbX6-3" target="sBbobzm5d6JnBrTkhbX6-11">
          <mxGeometry relative="1" as="geometry">
            <Array as="points">
              <mxPoint x="280" y="390" />
              <mxPoint x="320" y="390" />
            </Array>
          </mxGeometry>
        </mxCell>
        <mxCell id="sBbobzm5d6JnBrTkhbX6-3" value="16KB&amp;nbsp; (2&lt;sup&gt;2&amp;nbsp;&lt;/sup&gt;* 4KB)&lt;span style=&quot;font-size: 8.33333px&quot;&gt;&lt;br&gt;&lt;/span&gt;" style="rounded=0;whiteSpace=wrap;html=1;fillColor=#fff2cc;strokeColor=#d6b656;" vertex="1" parent="1">
          <mxGeometry x="210" y="330" width="140" height="40" as="geometry" />
        </mxCell>
        <mxCell id="sBbobzm5d6JnBrTkhbX6-4" value="16KB&amp;nbsp; (2&lt;sup&gt;2 &lt;/sup&gt;* 4KB)&lt;span style=&quot;font-size: 8.33333px&quot;&gt;&lt;br&gt;&lt;/span&gt;" style="rounded=0;whiteSpace=wrap;html=1;fillColor=#fff2cc;strokeColor=#d6b656;" vertex="1" parent="1">
          <mxGeometry x="360" y="330" width="140" height="40" as="geometry" />
        </mxCell>
        <mxCell id="sBbobzm5d6JnBrTkhbX6-18" style="edgeStyle=elbowEdgeStyle;rounded=0;orthogonalLoop=1;jettySize=auto;elbow=vertical;html=1;entryX=0.5;entryY=0;entryDx=0;entryDy=0;" edge="1" parent="1" source="sBbobzm5d6JnBrTkhbX6-10" target="sBbobzm5d6JnBrTkhbX6-14">
          <mxGeometry relative="1" as="geometry" />
        </mxCell>
        <mxCell id="sBbobzm5d6JnBrTkhbX6-19" style="edgeStyle=elbowEdgeStyle;rounded=0;orthogonalLoop=1;jettySize=auto;elbow=vertical;html=1;exitX=0.5;exitY=1;exitDx=0;exitDy=0;entryX=0.5;entryY=0;entryDx=0;entryDy=0;" edge="1" parent="1" source="sBbobzm5d6JnBrTkhbX6-10" target="sBbobzm5d6JnBrTkhbX6-15">
          <mxGeometry relative="1" as="geometry" />
        </mxCell>
        <mxCell id="sBbobzm5d6JnBrTkhbX6-10" value="&lt;font style=&quot;font-size: 10px&quot;&gt;8KB&amp;nbsp;&lt;/font&gt;&lt;span style=&quot;font-size: 8.33333px&quot;&gt;&lt;br&gt;&lt;/span&gt;" style="rounded=0;whiteSpace=wrap;html=1;fillColor=#f8cecc;strokeColor=#b85450;" vertex="1" parent="1">
          <mxGeometry x="210" y="410" width="60" height="40" as="geometry" />
        </mxCell>
        <mxCell id="sBbobzm5d6JnBrTkhbX6-11" value="8KB&amp;nbsp;&lt;span style=&quot;font-size: 8.33333px&quot;&gt;&lt;br&gt;&lt;/span&gt;" style="rounded=0;whiteSpace=wrap;html=1;fillColor=#f8cecc;strokeColor=#b85450;" vertex="1" parent="1">
          <mxGeometry x="290" y="410" width="60" height="40" as="geometry" />
        </mxCell>
        <mxCell id="sBbobzm5d6JnBrTkhbX6-14" value="&lt;font style=&quot;font-size: 8px&quot;&gt;4KB&amp;nbsp;&lt;/font&gt;&lt;span style=&quot;font-size: 8.33333px&quot;&gt;&lt;br&gt;&lt;/span&gt;" style="rounded=0;whiteSpace=wrap;html=1;fillColor=#e1d5e7;strokeColor=#9673a6;" vertex="1" parent="1">
          <mxGeometry x="210" y="490" width="20" height="40" as="geometry" />
        </mxCell>
        <mxCell id="sBbobzm5d6JnBrTkhbX6-15" value="&lt;font style=&quot;font-size: 8px&quot;&gt;4KB&amp;nbsp;&lt;/font&gt;&lt;span style=&quot;font-size: 8.33333px&quot;&gt;&lt;br&gt;&lt;/span&gt;" style="rounded=0;whiteSpace=wrap;html=1;fillColor=#e1d5e7;strokeColor=#9673a6;" vertex="1" parent="1">
          <mxGeometry x="250" y="490" width="20" height="40" as="geometry" />
        </mxCell>
        <mxCell id="sBbobzm5d6JnBrTkhbX6-22" value="" style="html=1;shadow=0;dashed=0;align=center;verticalAlign=middle;shape=mxgraph.arrows2.arrow;dy=0.6;dx=40;direction=north;notch=0;fillColor=#dae8fc;strokeColor=#6c8ebf;" vertex="1" parent="1">
          <mxGeometry x="510" y="250" width="40" height="280" as="geometry" />
        </mxCell>
        <mxCell id="sBbobzm5d6JnBrTkhbX6-23" value="" style="html=1;shadow=0;dashed=0;align=center;verticalAlign=middle;shape=mxgraph.arrows2.arrow;dy=0.6;dx=40;direction=north;notch=0;fillColor=#dae8fc;strokeColor=#6c8ebf;rotation=-180;" vertex="1" parent="1">
          <mxGeometry x="160" y="250" width="40" height="280" as="geometry" />
        </mxCell>
        <mxCell id="sBbobzm5d6JnBrTkhbX6-24" value="&lt;b&gt;&lt;font style=&quot;font-size: 14px&quot;&gt;一个较大的伙伴块可以分裂成下一级的两个伙伴块&lt;/font&gt;&lt;/b&gt;" style="rounded=0;whiteSpace=wrap;html=1;" vertex="1" parent="1">
          <mxGeometry x="80" y="250" width="70" height="280" as="geometry" />
        </mxCell>
        <mxCell id="sBbobzm5d6JnBrTkhbX6-25" value="&lt;b&gt;&lt;font style=&quot;font-size: 14px&quot;&gt;两个连续的伙伴块可以合并成一个上级的伙伴块&lt;br&gt;&lt;/font&gt;&lt;/b&gt;" style="rounded=0;whiteSpace=wrap;html=1;" vertex="1" parent="1">
          <mxGeometry x="570" y="250" width="70" height="280" as="geometry" />
        </mxCell>
        <mxCell id="sBbobzm5d6JnBrTkhbX6-27" value="&lt;b&gt;&lt;font style=&quot;font-size: 16px&quot;&gt;伙伴系统的基本思想，基于伙伴块进行分裂与合并&lt;/font&gt;&lt;/b&gt;" style="text;html=1;align=center;verticalAlign=middle;whiteSpace=wrap;rounded=0;fillColor=#f5f5f5;fontColor=#333333;" vertex="1" parent="1">
          <mxGeometry x="110" y="560" width="470" height="20" as="geometry" />
        </mxCell>
      </root>
    </mxGraphModel>
  </diagram>
</mxfile>
